<svg width="305" height="87" viewBox="0 0 305 87" fill="none" xmlns="http://www.w3.org/2000/svg">
<path d="M23.8494 32.2361C23.9222 32.3566 23.9586 32.5132 23.9586 32.7059C23.9586 32.8746 23.8737 33.0432 23.7037 33.2119C23.5581 33.3564 23.376 33.4287 23.1576 33.4287H14.8558C14.1519 33.4287 13.6542 33.1516 13.3629 32.5975L8.92076 24.7192V32.4529C8.92076 32.718 8.82367 32.9468 8.62947 33.1396C8.43528 33.3323 8.20468 33.4287 7.93766 33.4287H0.983105C0.716089 33.4287 0.485484 33.3323 0.29129 33.1396C0.0970968 32.9468 0 32.718 0 32.4529V9.10706C0 8.84204 0.0970968 8.61316 0.29129 8.42042C0.485484 8.22768 0.716089 8.1313 0.983105 8.1313H7.93766C8.20468 8.1313 8.43528 8.22768 8.62947 8.42042C8.82367 8.61316 8.92076 8.84204 8.92076 9.10706V16.2626L13.0352 8.92637C13.3023 8.39632 13.7877 8.1313 14.4917 8.1313H22.5386C22.7571 8.1313 22.9391 8.21563 23.0848 8.38428C23.2547 8.52884 23.3396 8.69748 23.3396 8.89023C23.3396 9.05888 23.3032 9.20343 23.2304 9.3239L16.6764 20.2379L23.8494 32.2361Z" fill="#E41E12"/>
<path d="M34.3139 8.1313H42.2152C43.0891 8.1313 43.6352 8.52884 43.8537 9.3239L51.9734 32.3807C51.9977 32.4529 52.0098 32.5734 52.0098 32.7421C52.0098 32.8866 51.9249 33.0432 51.7549 33.2119C51.6093 33.3564 51.4272 33.4287 51.2088 33.4287H44.4727C43.7445 33.4287 43.2711 33.1275 43.0526 32.5252L42.1788 30.14H34.3503L33.4765 32.5252C33.258 33.1275 32.7847 33.4287 32.0564 33.4287H25.3203C25.1019 33.4287 24.9077 33.3564 24.7378 33.2119C24.5921 33.0432 24.5193 32.8866 24.5193 32.7421C24.5193 32.5734 24.5314 32.4529 24.5557 32.3807L32.6754 9.3239C32.8939 8.52884 33.4401 8.1313 34.3139 8.1313ZM36.2073 23.0929H40.3218L38.2464 16.371L36.2073 23.0929Z" fill="#E41E12"/>
<path d="M55.5474 8.1313H77.6855C77.9525 8.1313 78.1831 8.22768 78.3773 8.42042C78.5715 8.61316 78.6686 8.84204 78.6686 9.10706V32.4529C78.6686 32.718 78.5715 32.9468 78.3773 33.1396C78.1831 33.3323 77.9525 33.4287 77.6855 33.4287H70.5489C70.2818 33.4287 70.0512 33.3323 69.857 33.1396C69.6628 32.9468 69.5658 32.718 69.5658 32.4529V16.0819H63.6671V32.4529C63.6671 32.718 63.57 32.9468 63.3758 33.1396C63.1816 33.3323 62.951 33.4287 62.684 33.4287H55.5474C55.2804 33.4287 55.0498 33.3444 54.8556 33.1757C54.6614 32.983 54.5643 32.7421 54.5643 32.4529V9.10706C54.5643 8.84204 54.6614 8.61316 54.8556 8.42042C55.0498 8.22768 55.2804 8.1313 55.5474 8.1313Z" fill="#E41E12"/>
<path d="M84.0207 8.1313H90.6112C90.8782 8.1313 91.1088 8.22768 91.303 8.42042C91.4972 8.61316 91.5943 8.84204 91.5943 9.10706V18.973L97.7478 8.9625C98.0634 8.40837 98.561 8.1313 99.2407 8.1313H104.994C105.261 8.1313 105.491 8.22768 105.685 8.42042C105.88 8.61316 105.977 8.84204 105.977 9.10706V32.4529C105.977 32.718 105.88 32.9468 105.685 33.1396C105.491 33.3323 105.261 33.4287 104.994 33.4287H98.4032C98.1362 33.4287 97.9056 33.3323 97.7114 33.1396C97.5172 32.9468 97.4201 32.718 97.4201 32.4529V23.382L91.2666 32.5975C90.9025 33.1516 90.4049 33.4287 89.7737 33.4287H84.0207C83.7537 33.4287 83.5231 33.3323 83.3289 33.1396C83.1347 32.9468 83.0376 32.718 83.0376 32.4529V9.10706C83.0376 8.84204 83.1347 8.61316 83.3289 8.42042C83.5231 8.22768 83.7537 8.1313 84.0207 8.1313Z" fill="#E41E12"/>
<path d="M110.046 8.1313H131.383C131.65 8.1313 131.881 8.22768 132.075 8.42042C132.269 8.61316 132.366 8.84204 132.366 9.10706V14.9255C132.366 15.1905 132.269 15.4194 132.075 15.6121C131.881 15.8048 131.65 15.9012 131.383 15.9012H125.339V32.4529C125.339 32.718 125.242 32.9468 125.048 33.1396C124.854 33.3323 124.623 33.4287 124.356 33.4287H117.074C116.807 33.4287 116.576 33.3323 116.382 33.1396C116.188 32.9468 116.091 32.718 116.091 32.4529V15.9012H110.046C109.779 15.9012 109.549 15.8048 109.354 15.6121C109.16 15.4194 109.063 15.1905 109.063 14.9255V9.10706C109.063 8.84204 109.16 8.61316 109.354 8.42042C109.549 8.22768 109.779 8.1313 110.046 8.1313Z" fill="#E41E12"/>
<path d="M140.166 8.1313H148.067C148.941 8.1313 149.487 8.52884 149.705 9.3239L157.825 32.3807C157.849 32.4529 157.861 32.5734 157.861 32.7421C157.861 32.8866 157.776 33.0432 157.607 33.2119C157.461 33.3564 157.279 33.4287 157.06 33.4287H150.324C149.596 33.4287 149.123 33.1275 148.904 32.5252L148.03 30.14H140.202L139.328 32.5252C139.11 33.1275 138.636 33.4287 137.908 33.4287H131.172C130.953 33.4287 130.759 33.3564 130.589 33.2119C130.444 33.0432 130.371 32.8866 130.371 32.7421C130.371 32.5734 130.383 32.4529 130.407 32.3807L138.527 9.3239C138.745 8.52884 139.292 8.1313 140.166 8.1313ZM142.059 23.0929H146.173L144.098 16.371L142.059 23.0929Z" fill="#E41E12"/>
<path d="M159.797 33.7901C159.53 33.7901 159.287 33.6937 159.069 33.501C158.874 33.3082 158.777 33.0793 158.777 32.8143V27.5019C158.777 27.2369 158.874 27.008 159.069 26.8152C159.263 26.6225 159.493 26.5261 159.76 26.5261C161.557 26.5261 162.455 25.5986 162.455 23.7434V9.10706C162.455 8.84204 162.552 8.61316 162.746 8.42042C162.94 8.22768 163.171 8.1313 163.438 8.1313H184.12C184.387 8.1313 184.617 8.22768 184.811 8.42042C185.006 8.61316 185.103 8.84204 185.103 9.10706V32.4529C185.103 32.718 185.006 32.9468 184.811 33.1396C184.617 33.3323 184.387 33.4287 184.12 33.4287H176.983C176.716 33.4287 176.485 33.3323 176.291 33.1396C176.097 32.9468 176 32.718 176 32.4529V16.0819H171.558V23.635C171.558 27.008 170.502 29.5498 168.39 31.2603C166.278 32.9468 163.414 33.7901 159.797 33.7901Z" fill="#E41E12"/>
<path d="M201.292 33.4287H190.441C190.174 33.4287 189.944 33.3323 189.749 33.1396C189.555 32.9468 189.458 32.718 189.458 32.4529V9.10706C189.458 8.84204 189.555 8.61316 189.749 8.42042C189.944 8.22768 190.174 8.1313 190.441 8.1313H197.942C198.209 8.1313 198.44 8.22768 198.634 8.42042C198.828 8.61316 198.925 8.84204 198.925 9.10706V16.0096H201.292C204.812 16.0096 207.542 16.7083 209.484 18.1057C211.451 19.5031 212.434 21.6594 212.434 24.5746C212.434 27.4898 211.451 29.6943 209.484 31.1881C207.518 32.6818 204.787 33.4287 201.292 33.4287ZM198.743 22.6954V26.7068H201.292C201.874 26.7068 202.299 26.502 202.566 26.0925C202.833 25.6829 202.967 25.1769 202.967 24.5746C202.967 23.9723 202.797 23.5145 202.457 23.2013C202.117 22.864 201.729 22.6954 201.292 22.6954H198.743Z" fill="#E41E12"/>
<path d="M231.498 8.1313H238.635C238.902 8.1313 239.132 8.22768 239.327 8.42042C239.521 8.61316 239.618 8.84204 239.618 9.10706V32.4529C239.618 32.718 239.521 32.9468 239.327 33.1396C239.132 33.3323 238.902 33.4287 238.635 33.4287H231.498C231.231 33.4287 231 33.3323 230.806 33.1396C230.612 32.9468 230.515 32.718 230.515 32.4529V24.6469H224.616V32.4529C224.616 32.718 224.519 32.9468 224.325 33.1396C224.131 33.3323 223.9 33.4287 223.633 33.4287H216.497C216.23 33.4287 215.999 33.3444 215.805 33.1757C215.611 32.983 215.514 32.7421 215.514 32.4529V9.10706C215.514 8.84204 215.611 8.61316 215.805 8.42042C215.999 8.22768 216.23 8.1313 216.497 8.1313H223.633C223.9 8.1313 224.131 8.22768 224.325 8.42042C224.519 8.61316 224.616 8.84204 224.616 9.10706V16.6963H230.515V9.10706C230.515 8.84204 230.612 8.61316 230.806 8.42042C231 8.22768 231.231 8.1313 231.498 8.1313Z" fill="#E41E12"/>
<path d="M255.821 33.4287H244.97C244.703 33.4287 244.472 33.3323 244.278 33.1396C244.084 32.9468 243.987 32.718 243.987 32.4529V9.10706C243.987 8.84204 244.084 8.61316 244.278 8.42042C244.472 8.22768 244.703 8.1313 244.97 8.1313H252.471C252.738 8.1313 252.968 8.22768 253.163 8.42042C253.357 8.61316 253.454 8.84204 253.454 9.10706V16.0096H255.821C259.34 16.0096 262.071 16.7083 264.013 18.1057C265.979 19.5031 266.962 21.6594 266.962 24.5746C266.962 27.4898 265.979 29.6943 264.013 31.1881C262.047 32.6818 259.316 33.4287 255.821 33.4287ZM253.272 22.6954V26.7068H255.821C256.403 26.7068 256.828 26.502 257.095 26.0925C257.362 25.6829 257.495 25.1769 257.495 24.5746C257.495 23.9723 257.326 23.5145 256.986 23.2013C256.646 22.864 256.258 22.6954 255.821 22.6954H253.272ZM276.721 33.4287H269.293C269.026 33.4287 268.795 33.3323 268.601 33.1396C268.407 32.9468 268.31 32.718 268.31 32.4529V9.10706C268.31 8.84204 268.407 8.61316 268.601 8.42042C268.795 8.22768 269.026 8.1313 269.293 8.1313H276.721C276.988 8.1313 277.218 8.22768 277.412 8.42042C277.607 8.61316 277.704 8.84204 277.704 9.10706V32.4529C277.704 32.718 277.607 32.9468 277.412 33.1396C277.218 33.3323 276.988 33.4287 276.721 33.4287Z" fill="#E41E12"/>
<path d="M283.044 8.1313H289.634C289.901 8.1313 290.132 8.22768 290.326 8.42042C290.52 8.61316 290.618 8.84204 290.618 9.10706V18.973L296.771 8.9625C297.087 8.40837 297.584 8.1313 298.264 8.1313H304.017C304.284 8.1313 304.514 8.22768 304.709 8.42042C304.903 8.61316 305 8.84204 305 9.10706V32.4529C305 32.718 304.903 32.9468 304.709 33.1396C304.514 33.3323 304.284 33.4287 304.017 33.4287H297.426C297.159 33.4287 296.929 33.3323 296.735 33.1396C296.54 32.9468 296.443 32.718 296.443 32.4529V23.382L290.29 32.5975C289.926 33.1516 289.428 33.4287 288.797 33.4287H283.044C282.777 33.4287 282.546 33.3323 282.352 33.1396C282.158 32.9468 282.061 32.718 282.061 32.4529V9.10706C282.061 8.84204 282.158 8.61316 282.352 8.42042C282.546 8.22768 282.777 8.1313 283.044 8.1313ZM294.914 0.686645C294.914 0.228882 295.145 0 295.606 0H299.211C299.672 0 299.902 0.228882 299.902 0.686645C299.902 2.39723 299.356 3.77052 298.264 4.8065C297.172 5.8184 295.557 6.32435 293.421 6.32435C291.309 6.32435 289.707 5.80635 288.615 4.77037C287.523 3.73438 286.976 2.37314 286.976 0.686645C286.976 0.228882 287.207 0 287.668 0H291.273C291.734 0 291.965 0.228882 291.965 0.686645C291.965 2.01175 292.45 2.6743 293.421 2.6743C294.416 2.6743 294.914 2.01175 294.914 0.686645Z" fill="#E41E12"/>
<path d="M1.70127 42.4105H40.0114C40.4734 42.4105 40.8725 42.5752 41.2086 42.9045C41.5446 43.2339 41.7126 43.625 41.7126 44.0778V83.9689C41.7126 84.4217 41.5446 84.8128 41.2086 85.1422C40.8725 85.4715 40.4734 85.6362 40.0114 85.6362H27.6614C27.1993 85.6362 26.8003 85.4715 26.4642 85.1422C26.1282 84.8128 25.9601 84.4217 25.9601 83.9689V55.9957H15.7525V83.9689C15.7525 84.4217 15.5845 84.8128 15.2484 85.1422C14.9124 85.4715 14.5133 85.6362 14.0512 85.6362H1.70127C1.2392 85.6362 0.840133 85.4921 0.50408 85.2039C0.168027 84.8746 0 84.4629 0 83.9689V44.0778C0 43.625 0.168027 43.2339 0.50408 42.9045C0.840133 42.5752 1.2392 42.4105 1.70127 42.4105Z" fill="#232323"/>
<path d="M50.9746 42.4105H69.7516C75.8006 42.4105 80.5263 43.6867 83.9288 46.2391C87.3314 48.7915 89.0327 52.5583 89.0327 57.5395C89.0327 62.5207 87.3314 66.2052 83.9288 68.5929C80.5683 70.9806 75.8426 72.1745 69.7516 72.1745H65.6559V83.9689C65.6559 84.4217 65.4879 84.8128 65.1519 85.1422C64.8158 85.4715 64.4167 85.6362 63.9547 85.6362H50.9746C50.5125 85.6362 50.1135 85.4715 49.7774 85.1422C49.4414 84.8128 49.2733 84.4217 49.2733 83.9689V44.0778C49.2733 43.625 49.4414 43.2339 49.7774 42.9045C50.1135 42.5752 50.5125 42.4105 50.9746 42.4105ZM65.3409 53.8962V60.7506H69.7516C70.5077 60.7506 71.1798 60.483 71.7679 59.9478C72.356 59.3715 72.6501 58.5687 72.6501 57.5395C72.6501 56.5103 72.419 55.6458 71.9569 54.946C71.4949 54.2461 70.7598 53.8962 69.7516 53.8962H65.3409Z" fill="#232323"/>
<path d="M114.225 85.6362H95.4484C94.9863 85.6362 94.5872 85.4715 94.2512 85.1422C93.9151 84.8128 93.7471 84.4217 93.7471 83.9689V44.0778C93.7471 43.625 93.9151 43.2339 94.2512 42.9045C94.5872 42.5752 94.9863 42.4105 95.4484 42.4105H108.428C108.89 42.4105 109.29 42.5752 109.626 42.9045C109.962 43.2339 110.13 43.625 110.13 44.0778V55.8722H114.225C120.316 55.8722 125.042 57.0661 128.403 59.4538C131.805 61.8415 133.506 65.526 133.506 70.5072C133.506 75.4884 131.805 79.2552 128.403 81.8076C125 84.36 120.274 85.6362 114.225 85.6362ZM109.815 67.2962V74.1505H114.225C115.234 74.1505 115.969 73.8006 116.431 73.1007C116.893 72.4009 117.124 71.5364 117.124 70.5072C117.124 69.478 116.83 68.6958 116.242 68.1607C115.654 67.5843 114.981 67.2962 114.225 67.2962H109.815ZM150.393 85.6362H137.539C137.077 85.6362 136.678 85.4715 136.342 85.1422C136.006 84.8128 135.838 84.4217 135.838 83.9689V44.0778C135.838 43.625 136.006 43.2339 136.342 42.9045C136.678 42.5752 137.077 42.4105 137.539 42.4105H150.393C150.855 42.4105 151.254 42.5752 151.59 42.9045C151.926 43.2339 152.094 43.625 152.094 44.0778V83.9689C152.094 84.4217 151.926 84.8128 151.59 85.1422C151.254 85.4715 150.855 85.6362 150.393 85.6362Z" fill="#232323"/>
<path d="M216.532 83.5984C216.658 83.8042 216.721 84.0718 216.721 84.4011C216.721 84.6893 216.574 84.9775 216.28 85.2657C216.028 85.5127 215.713 85.6362 215.335 85.6362H202.859C201.641 85.6362 200.78 85.1627 200.276 84.2159L193.219 68.9017V83.9689C193.219 84.4217 193.051 84.8128 192.715 85.1422C192.379 85.4715 191.98 85.6362 191.517 85.6362H180.743C180.281 85.6362 179.882 85.4715 179.546 85.1422C179.21 84.8128 179.041 84.4217 179.041 83.9689V68.9017L171.984 84.2159C171.522 85.1627 170.661 85.6362 169.401 85.6362H156.925C156.547 85.6362 156.211 85.5127 155.917 85.2657C155.665 84.9775 155.539 84.6893 155.539 84.4011C155.539 84.0718 155.602 83.8042 155.728 83.5984L166.25 63.0971L156.799 44.4483C156.673 44.2425 156.61 43.9955 156.61 43.7073C156.61 43.378 156.736 43.0898 156.988 42.8428C157.282 42.5546 157.618 42.4105 157.996 42.4105H170.031C171.249 42.4105 172.089 42.8634 172.551 43.7691L179.041 58.157V44.0778C179.041 43.625 179.21 43.2339 179.546 42.9045C179.882 42.5752 180.281 42.4105 180.743 42.4105H191.517C191.98 42.4105 192.379 42.5752 192.715 42.9045C193.051 43.2339 193.219 43.625 193.219 44.0778V58.157L199.709 43.7691C200.171 42.8634 201.011 42.4105 202.229 42.4105H214.264C214.642 42.4105 214.957 42.5546 215.209 42.8428C215.503 43.0898 215.65 43.378 215.65 43.7073C215.65 43.9955 215.587 44.2425 215.461 44.4483L206.01 63.0971L216.532 83.5984Z" fill="#232323"/>
<path d="M222.154 46.3626C226.018 43.3162 231.122 41.793 237.465 41.793C243.808 41.793 248.891 43.3368 252.713 46.4243C256.578 49.4707 258.51 53.7727 258.51 59.3303V68.9634C258.51 74.6033 256.599 78.9053 252.777 81.8694C248.996 84.7922 243.892 86.2537 237.465 86.2537C231.038 86.2537 225.913 84.7922 222.091 81.8694C218.31 78.9053 216.42 74.6033 216.42 68.9634V59.3303C216.42 53.7315 218.331 49.409 222.154 46.3626ZM234.063 72.9772C234.903 73.8006 236.037 74.2122 237.465 74.2122C238.893 74.2122 240.027 73.8006 240.868 72.9772C241.708 72.1539 242.128 70.8983 242.128 69.2104V58.8363C242.128 57.1896 241.708 55.9546 240.868 55.1312C240.027 54.2667 238.893 53.8345 237.465 53.8345C236.037 53.8345 234.903 54.2667 234.063 55.1312C233.222 55.9546 232.802 57.1896 232.802 58.8363V69.2104C232.802 70.8983 233.222 72.1539 234.063 72.9772Z" fill="#232323"/>
<path d="M304.811 83.5984C304.937 83.8042 305 84.0718 305 84.4011C305 84.6893 304.853 84.9775 304.559 85.2657C304.307 85.5127 303.992 85.6362 303.614 85.6362H289.247C288.029 85.6362 287.168 85.1627 286.664 84.2159L278.977 70.7542V83.9689C278.977 84.4217 278.809 84.8128 278.473 85.1422C278.137 85.4715 277.738 85.6362 277.276 85.6362H265.241C264.779 85.6362 264.38 85.4715 264.043 85.1422C263.707 84.8128 263.539 84.4217 263.539 83.9689V44.0778C263.539 43.625 263.707 43.2339 264.043 42.9045C264.38 42.5752 264.779 42.4105 265.241 42.4105H277.276C277.738 42.4105 278.137 42.5752 278.473 42.9045C278.809 43.2339 278.977 43.625 278.977 44.0778V56.3045L286.097 43.7691C286.559 42.8634 287.399 42.4105 288.617 42.4105H302.543C302.921 42.4105 303.236 42.5546 303.488 42.8428C303.782 43.0898 303.929 43.378 303.929 43.7073C303.929 43.9955 303.866 44.2425 303.74 44.4483L292.398 63.0971L304.811 83.5984Z" fill="#232323"/>
</svg>
